{
	"asset":{
		"version":"2.0",
		"generator":"Created using the official Cinema 4D glTF Exporter 1.000x284978"
	},
	"scenes":[{
		"nodes":[0]
	}],
	"nodes":[{
		"name":"Plane",
		"mesh":0
	}],
	"meshes":[{
		"name":"Plane",
		"primitives":[{
			"attributes":{
				"POSITION":1,
				"NORMAL":2,
				"TEXCOORD_0":3
			},
			"indices":0,
			"material":0
		}]
	}],
	"accessors":[{
		"bufferView":0,
		"type":"SCALAR",
		"componentType":5123,
		"count":6186,
		"byteOffset":0,
		"min":[0],
		"max":[1540]
	},
	{
		"bufferView":1,
		"type":"VEC3",
		"componentType":5126,
		"count":1541,
		"byteOffset":0,
		"min":[-9.371936798095704,
		-7.902129173278809,
		-9.502015113830567],
		"max":[9.371936798095704,
		7.902129173278809,
		9.502015113830567]
	},
	{
		"bufferView":1,
		"type":"VEC3",
		"componentType":5126,
		"count":1541,
		"byteOffset":12,
		"min":[-0.9978518486022949,
		-0.9939464926719666,
		-0.9999182224273682],
		"max":[0.9994269013404846,
		1.0,
		0.998738169670105]
	},
	{
		"bufferView":1,
		"type":"VEC2",
		"componentType":5126,
		"count":1541,
		"byteOffset":24,
		"min":[-0.09705810248851776,
		-0.0901111364364624],
		"max":[1.0255908966064454,
		1.0504672527313233]
	}],
	"bufferViews":[{
		"buffer":0,
		"byteOffset":0,
		"byteLength":12372,
		"target":34963
	},
	{
		"buffer":0,
		"byteOffset":12372,
		"byteLength":49312,
		"target":34962,
		"byteStride":32
	}],
	"buffers":[{
		"uri":"data:application/octet-stream;base64,",
		"byteLength":61684
	}],
	"images":[{
		"uri":"data:image/jpeg;base64,"
	},
	{
		"uri":"data:image/jpeg;base64,"
	},
	{
		"uri":"data:image/jpeg;base64,"
	}],
	"samplers":[{
		"magFilter":9729,
		"minFilter":9729,
		"wrapS":10497,
		"wrapT":10497
	},
	{
		"magFilter":9729,
		"minFilter":9729,
		"wrapS":10497,
		"wrapT":10497
	},
	{
		"magFilter":9729,
		"minFilter":9729,
		"wrapS":10497,
		"wrapT":10497
	}],
	"textures":[{
		"sampler":0,
		"source":0
	},
	{
		"sampler":1,
		"source":1
	},
	{
		"sampler":2,
		"source":2
	}],
	"materials":[{
		"doubleSided":false,
		"pbrMetallicRoughness":{
			"baseColorTexture":{
				"index":0
			},
			"baseColorFactor":[0.8,
			0.8,
			0.8,
			1.0],
			"metallicFactor":0.0,
			"roughnessFactor":0.6
		},
		"normalTexture":{
			"index":1,
			"scale":0.1
		},
		"occlusionTexture":{
			"index":2,
			"strength":0.2
		},
		"emissiveFactor":[0.0,
		0.0,
		0.0],
		"alphaMode":"OPAQUE",
		"name":"Rocks 01 - RD-Textures"
	}]
}